<svg xmlns="http://www.w3.org/2000/svg" viewBox="0 0 1280 720"><defs><linearGradient id="bg" x1="0" y1="0" x2="0" y2="1"><stop offset="0" stop-color="#0B1F3A"/><stop offset="1" stop-color="#12335E"/></linearGradient><marker id="ar" markerWidth="10" markerHeight="10" refX="8" refY="5" orient="auto"><path d="M0 0L10 5L0 10Z" fill="#00D68F"/></marker><marker id="ar2" markerWidth="10" markerHeight="10" refX="8" refY="5" orient="auto"><path d="M0 0L10 5L0 10Z" fill="#f2b632"/></marker></defs><rect width="1280" height="720" fill="url(#bg)"/><text x="60" y="70" font-family="Arial,Helvetica,sans-serif" font-size="24" font-weight="400" fill="#8fa6c4" text-anchor="start" letter-spacing="3">04 · NGUỒN THU 2 · 24–34 giây</text><rect x="150" y="260" width="320" height="220" rx="28" fill="#17365e" stroke="#00D68F" stroke-width="5"/><rect x="380" y="330" width="140" height="80" rx="20" fill="#0f4a3a" stroke="#00D68F" stroke-width="4"/><circle cx="420" cy="370" r="10" fill="#7DFFC4"/><ellipse cx="260" cy="250" rx="52" ry="14" fill="#f2b632" stroke="#8a5d00" stroke-width="3"/><ellipse cx="260" cy="232" rx="52" ry="14" fill="#f2b632" stroke="#8a5d00" stroke-width="3"/><ellipse cx="260" cy="214" rx="52" ry="14" fill="#f2b632" stroke="#8a5d00" stroke-width="3"/><ellipse cx="260" cy="196" rx="52" ry="14" fill="#f2b632" stroke="#8a5d00" stroke-width="3"/><text x="310" y="530" font-family="Arial,Helvetica,sans-serif" font-size="28" font-weight="700" fill="#cfe0f5" text-anchor="middle" >Tiền nhàn rỗi trong ví</text><polygon points="820,260 1000,190 1180,260" fill="#cfe0f5"/><rect x="840" y="260" width="320" height="30" fill="#8ba6cf"/><rect x="860" y="290" width="36" height="150" fill="#cfe0f5"/><rect x="930" y="290" width="36" height="150" fill="#cfe0f5"/><rect x="1000" y="290" width="36" height="150" fill="#cfe0f5"/><rect x="1070" y="290" width="36" height="150" fill="#cfe0f5"/><rect x="830" y="440" width="340" height="30" fill="#8ba6cf"/><text x="1000" y="530" font-family="Arial,Helvetica,sans-serif" font-size="28" font-weight="700" fill="#cfe0f5" text-anchor="middle" >Ngân hàng</text><path d="M530 340H800" stroke="#00D68F" stroke-width="6" marker-end="url(#ar)"/><path d="M800 410H530" stroke="#f2b632" stroke-width="6" marker-end="url(#ar2)"/><text x="665" y="325" font-family="Arial,Helvetica,sans-serif" font-size="26" font-weight="700" fill="#00D68F" text-anchor="middle" >gửi</text><text x="665" y="450" font-family="Arial,Helvetica,sans-serif" font-size="26" font-weight="700" fill="#f2b632" text-anchor="middle" >lãi</text><text x="640" y="130" font-family="Arial,Helvetica,sans-serif" font-size="30" font-weight="700" fill="#8fa6c4" text-anchor="middle" letter-spacing="3">NGUỒN THU 2 · LÃI TỪ TIỀN TRONG VÍ</text><rect y="610" width="1280" height="110" fill="#000" opacity=".55"/><text x="640" y="656" font-family="Arial,Helvetica,sans-serif" font-size="31" font-weight="400" fill="#fff" text-anchor="middle" >Thứ hai, số dư nằm trong ví có thể được gửi</text><text x="640" y="696" font-family="Arial,Helvetica,sans-serif" font-size="31" font-weight="400" fill="#fff" text-anchor="middle" >theo quy định, và tạo ra lãi. (cần kiểm chứng theo từng ví)</text></svg>