<svg xmlns="http://www.w3.org/2000/svg" viewBox="0 0 1280 720"><defs><linearGradient id="blz" x1="0" y1="0" x2="1" y2="0"><stop offset="0" stop-color="#2d4472"/><stop offset=".5" stop-color="#1f3158"/><stop offset="1" stop-color="#16233f"/></linearGradient>
<linearGradient id="pnt" x1="0" y1="0" x2="1" y2="0"><stop offset="0" stop-color="#2a3350"/><stop offset="1" stop-color="#171d33"/></linearGradient>
<linearGradient id="skn" x1="0" y1="0" x2="1" y2="1"><stop offset="0" stop-color="#f6d3b0"/><stop offset="1" stop-color="#e2a97f"/></linearGradient>
<radialGradient id="glw" cx=".5" cy=".5" r=".5"><stop offset="0" stop-color="#ffc760" stop-opacity=".9"/><stop offset="1" stop-color="#ffc760" stop-opacity="0"/></radialGradient>
<radialGradient id="glg" cx=".5" cy=".5" r=".5"><stop offset="0" stop-color="#4dffb0" stop-opacity=".6"/><stop offset="1" stop-color="#4dffb0" stop-opacity="0"/></radialGradient>
<linearGradient id="wood" x1="0" y1="0" x2="0" y2="1"><stop offset="0" stop-color="#9b6a3c"/><stop offset="1" stop-color="#5e3c1e"/></linearGradient></defs><rect width="1280" height="720" fill="#fff"/><g transform="translate(470 640) scale(1.05)" stroke="#1b1b1f" stroke-width="4" stroke-linejoin="round" stroke-linecap="round"><ellipse cx="0" cy="2" rx="150" ry="16" fill="#000" opacity=".10" stroke="none"/><path d="M-60 -232 L-52 -16 L-8 -16 L-4 -232Z" fill="url(#pnt)"/><path d="M60 -232 L52 -16 L8 -16 L4 -232Z" fill="url(#pnt)"/><path d="M-58 -16 Q-80 -14 -80 0 L-10 0 L-8 -16Z" fill="#6b3f1d"/><path d="M58 -16 Q80 -14 80 0 L10 0 L8 -16Z" fill="#6b3f1d"/><path d="M-70 -388 Q0 -412 70 -388 L80 -224 L-80 -224Z" fill="url(#blz)"/><path d="M-22 -396 L0 -300 L22 -396Z" fill="#d7dbe3" stroke-width="3"/><path d="M-22 -396 L-8 -330 L-40 -300 L-34 -390Z M22 -396 L8 -330 L40 -300 L34 -390Z" fill="#1a2a4c" stroke-width="3"/><path d="M0 -300V-224" stroke-width="3"/><circle cx="0" cy="-262" r="5" fill="#0d1428" stroke-width="2"/><rect x="-13" y="-402" width="26" height="22" fill="#e2a97f" stroke-width="3"/><polyline points="-58,-385 -72,-320 -66,-250" fill="none" stroke="#1b1b1f" stroke-width="40"/><polyline points="-58,-385 -72,-320 -66,-250" fill="none" stroke="#243a66" stroke-width="32"/><circle cx="-66" cy="-250" r="15" fill="url(#skn)" stroke-width="3.5"/><polyline points="58,-385 100,-425 30,-472" fill="none" stroke="#1b1b1f" stroke-width="40"/><polyline points="58,-385 100,-425 30,-472" fill="none" stroke="#243a66" stroke-width="32"/><circle cx="30" cy="-472" r="15" fill="url(#skn)" stroke-width="3.5"/><ellipse cx="-41" cy="-428" rx="8" ry="14" fill="#e8b48c" stroke-width="3"/><ellipse cx="41" cy="-428" rx="8" ry="14" fill="#e8b48c" stroke-width="3"/><ellipse cx="0" cy="-432" rx="41" ry="50" fill="url(#skn)"/><path d="M-44 -440 Q-46 -496 0 -496 Q46 -496 44 -440 Q38 -470 0 -472 Q-38 -470 -44 -440Z" fill="#17120f" stroke-width="3"/><g fill="none" stroke-width="3"><circle cx="-17" cy="-434" r="14"/><circle cx="17" cy="-434" r="14"/><path d="M-3 -436H3"/></g><ellipse cx="-17" cy="-433" rx="3.6" ry="5" fill="#111" stroke="none"/><ellipse cx="17" cy="-433" rx="3.6" ry="5" fill="#111" stroke="none"/><path d="M0 -430 Q-5 -414 3 -413" fill="none" stroke-width="2.5"/><path d="M-32 -448 L-6 -458M32 -448 L6 -458" fill="none" stroke-width="3.5"/><path d="M-13 -396 Q0 -406 13 -396" fill="none" stroke-width="3.5"/></g><g transform="translate(860 170)" stroke="#1b1b1f" stroke-width="4" stroke-linejoin="round"><ellipse cx="90" cy="200" rx="190" ry="180" fill="url(#glw)" stroke="none"/><rect x="10" y="0" width="160" height="26" rx="8" fill="url(#wood)"/><rect x="10" y="374" width="160" height="26" rx="8" fill="url(#wood)"/><path d="M28 26 L152 26 Q152 150 100 200 Q152 250 152 374 L28 374 Q28 250 80 200 Q28 150 28 26Z" fill="#fff6e0" fill-opacity=".55" stroke="#c9822a" stroke-width="5"/><path d="M48 40 L132 40 Q130 100 96 150 L84 150 Q50 100 48 40Z" fill="#f08a1c" stroke="none"/><path d="M40 372 L140 372 Q136 320 98 290 L82 290 Q44 320 40 372Z" fill="#f08a1c" stroke="none"/><path d="M90 150V290" stroke="#f08a1c" stroke-width="4"/></g><text x="640" y="690" font-family="Arial,Helvetica,sans-serif" font-weight="800" font-size="34" text-anchor="middle" fill="#fff" stroke="#111" stroke-width="9" paint-order="stroke" stroke-linejoin="round">THỜI GIAN TRÔI, TIỀN KHÔNG TỰ SINH RA</text></svg>